<svg width="157" height="10" viewBox="0 0 157 10" fill="none" xmlns="http://www.w3.org/2000/svg">
<path d="M156.779 4.71406C157.006 4.7764 156.959 4.19321 157 4.0907C156.605 4.20013 156.777 4.86506 156.779 4.71406Z" fill="#E70000"/>
<path d="M152.876 5.84306L152.958 5.60895L152.359 6.16167L152.876 5.84306Z" fill="#E70000"/>
<path d="M149.305 5.65742C149.583 6.66174 150.608 5.56184 151.225 5.94417L151.315 6.17551L151.649 5.39423C150.869 5.4815 149.832 5.95803 149.305 5.65742Z" fill="#E70000"/>
<path d="M147.525 3.42993C147.619 3.81919 147.091 3.73885 147.961 3.57123C147.921 3.5269 147.91 3.50197 147.886 3.47011C147.81 3.47149 147.704 3.46456 147.525 3.42993Z" fill="#E70000"/>
<path d="M147.888 3.46872C147.66 3.13487 148.264 3.46041 147.888 3.46872V3.46872Z" fill="#E70000"/>
<path d="M146.136 3.60453L146.652 3.28592C146.561 3.05458 146.122 2.98116 146.296 2.82324C145.776 2.9867 145.868 3.21666 146.136 3.60453Z" fill="#E70000"/>
<path d="M145.624 4.30129L145.889 4.16831C145.85 4.07134 145.783 4.03532 145.624 4.30129Z" fill="#E70000"/>
<path d="M146.451 3.88849L145.889 4.16831C145.951 4.33177 145.94 4.65177 146.145 4.06996C146.085 4.36086 146.209 4.08381 146.451 3.88849Z" fill="#E70000"/>
<path d="M146.75 4.05326C147.016 4.28182 147.368 4.4342 146.851 4.75143C147.807 4.66416 147.709 3.96321 146.75 4.05326Z" fill="#E70000"/>
<path d="M149.063 6.6687L149.417 6.97761L149.758 6.66038C149.588 6.81692 149.057 6.3584 149.063 6.6687Z" fill="#E70000"/>
<path d="M143.075 2.94092C143.032 3.14871 143.211 3.50887 143.232 3.779L143.611 3.55597C143.432 3.40359 143.083 3.25399 143.075 2.94092Z" fill="#E70000"/>
<path d="M143.232 3.7804L142.664 4.11424C143.152 4.18074 143.251 4.01312 143.232 3.7804Z" fill="#E70000"/>
<path d="M145.472 5.39285L146.417 4.67944L145.299 5.39424L145.472 5.39285Z" fill="#E70000"/>
<path d="M140.984 2.81211L141.32 2.34113L140.728 3.04899L140.984 2.81211Z" fill="#E70000"/>
<path d="M139.59 2.82877C139.843 2.43812 139.312 2.13198 139.568 1.89648C139.187 1.95051 138.847 2.2802 138.539 2.57803C138.858 2.41873 139.183 2.47829 139.59 2.82877Z" fill="#E70000"/>
<path d="M138.027 3.00603C138.187 2.91737 138.354 2.75253 138.538 2.5766C138.369 2.6611 138.202 2.78854 138.027 3.00603Z" fill="#E70000"/>
<path d="M141.735 3.96331C141.701 3.83448 141.638 3.49786 141.338 3.34271L141.521 3.9453C141.587 3.95084 141.659 3.95777 141.735 3.96331Z" fill="#E70000"/>
<path d="M141.528 3.96327L141.521 3.94388C141.29 3.91479 141.128 3.8954 141.059 3.88708C141.117 3.89817 141.258 3.92033 141.528 3.96327Z" fill="#E70000"/>
<path d="M141.789 3.96876L141.735 3.96326C141.753 4.02382 141.766 4.04309 141.789 3.96876Z" fill="#E70000"/>
<path d="M144.069 4.78748C143.728 5.10332 143.037 5.42331 143.658 5.95941C143.911 5.56599 143.557 5.26124 144.069 4.78748Z" fill="#E70000"/>
<path d="M142.017 4.72102L142.59 4.88448C142.589 4.72794 142.496 4.49522 142.665 4.33868L142.017 4.72102Z" fill="#E70000"/>
<path d="M141.722 4.89414L142.017 4.72099L141.805 4.66003L141.722 4.89414Z" fill="#E70000"/>
<path d="M138.995 3.60862C138.731 3.85381 138.452 3.86212 138.141 3.88706C138.468 4.02004 138.807 4.10039 139.135 4.11424C139.189 3.93 139.351 3.60447 138.995 3.60862Z" fill="#E70000"/>
<path d="M140.223 3.83307L140.165 3.86335C140.197 3.91428 140.223 3.93217 140.223 3.83307Z" fill="#E70000"/>
<path d="M135.082 3.73334C135.096 3.76637 135.111 3.80629 135.125 3.84208L135.141 3.74022L135.082 3.73334Z" fill="#E70000"/>
<path d="M139.184 4.22646C139.428 4.35252 139.584 4.21538 139.737 4.04083C139.547 4.0907 139.348 4.11979 139.133 4.11287C139.109 4.19598 139.102 4.25139 139.184 4.22646Z" fill="#E70000"/>
<path d="M137.159 3.24013C137.284 3.37035 137.424 3.48255 137.576 3.58645C137.458 3.39251 137.215 3.08914 137.159 3.24013Z" fill="#E70000"/>
<path d="M140.09 3.69528L140.129 3.6705C140.055 3.54111 140.06 3.60305 140.09 3.69528Z" fill="#E70000"/>
<path d="M140.09 3.69586C139.957 3.77482 139.848 3.91612 139.738 4.04218C139.893 4.002 140.039 3.9466 140.166 3.86487C140.136 3.82054 140.11 3.75543 140.09 3.69586Z" fill="#E70000"/>
<path d="M133.956 7.4818C134.03 6.936 134.714 6.46224 135.25 7.0773C135.829 6.69358 135.562 4.87335 135.127 3.84271C135.098 4.07959 135.085 4.30123 134.494 4.5963C134.679 4.90521 135.732 5.35819 135.219 5.83056C134.442 6.07575 134.606 5.60615 134.251 5.29862C134.53 5.99679 133.232 6.24475 133.344 7.25738L134.03 6.93739C134.035 7.09392 133.779 7.3308 133.956 7.4818Z" fill="#E70000"/>
<path d="M136.219 3.9522L136.459 3.89541C136.196 3.78736 136.014 3.55879 135.68 3.11273C135.272 3.36069 135.179 3.56017 135.142 3.74164L136.302 3.87463L136.219 3.9522Z" fill="#E70000"/>
<path d="M137.52 3.94659C137.304 4.53394 136.722 4.75974 137.035 5.42051C137.732 5.41358 137.548 4.94675 137.977 4.70849C136.85 4.8013 138.318 4.39126 137.526 4.01447C137.753 3.92443 137.952 3.90226 138.139 3.88703C137.941 3.8053 137.751 3.70556 137.576 3.58643L137.599 3.62383H137.605L137.603 3.63214C137.648 3.70833 137.66 3.75543 137.609 3.70971C137.605 3.71664 137.591 3.71803 137.585 3.7208C137.573 3.80253 137.548 3.87317 137.521 3.94244C137.204 3.80253 137.479 3.7859 137.585 3.7208L137.603 3.63214L137.599 3.62383L136.459 3.89534C136.693 3.99092 136.99 3.98815 137.52 3.94659Z" fill="#E70000"/>
<path d="M142.986 7.2108C142.956 7.15712 142.959 7.11445 142.959 7.07178C142.882 7.1406 142.853 7.18878 142.986 7.2108Z" fill="#E70000"/>
<path d="M142.545 6.82936C142.632 6.74902 142.713 6.51491 142.976 6.58971C143.195 6.77949 142.958 6.87508 142.959 7.07178C143.127 6.92217 143.542 6.67144 143.056 6.35699L142.973 6.43456C142.534 6.20738 141.994 5.43579 142.078 5.35822C142.179 5.89985 142.275 6.28911 142.545 6.82936Z" fill="#E70000"/>
<path d="M139.995 5.53827L139.043 5.78484L139.49 6.32371L139.482 6.01203C140.008 6.16025 139.916 5.77376 139.995 5.53827Z" fill="#E70000"/>
<path d="M134.991 3.43268L135.149 2.80792L134.562 3.67233L134.991 3.43268Z" fill="#E70000"/>
<path d="M133.773 3.44651L133.847 2.9021L133.509 3.21656L133.773 3.44651Z" fill="#E70000"/>
<path d="M65.0271 7.53583L64.75 7.68405C64.8802 7.63834 64.9647 7.58847 65.0271 7.53583Z" fill="#E70000"/>
<path d="M67.0104 7.62171L67.0658 7.35297C66.9702 7.4998 66.9287 7.60785 67.0104 7.62171Z" fill="#E70000"/>
<path d="M103.934 2.04609C103.554 1.51553 103.139 0.699613 103.162 1.31883L103.26 1.92557C103.544 1.82999 103.756 1.90895 103.934 2.04609Z" fill="#E70000"/>
<path d="M83.375 4.84016L83.4872 5.02578C83.5911 4.82353 83.6867 4.63375 83.7753 4.45782C83.6521 4.57557 83.5177 4.7044 83.375 4.84016Z" fill="#E70000"/>
<path d="M83.0149 7.31837L82.501 6.91803C82.6132 7.05656 82.7794 7.19093 83.0149 7.31837Z" fill="#E70000"/>
<path d="M54.1748 7.90155L53.8438 8.50553C54.3438 8.51522 54.1291 8.20077 54.1748 7.90155Z" fill="#E70000"/>
<path d="M121.32 3.05867C120.985 2.80655 120.716 2.69435 120.477 2.65417C120.876 3.0185 121.186 3.55182 121.32 3.05867Z" fill="#E70000"/>
<path d="M65.9597 1.17889C65.7893 1.28417 65.7131 1.40469 65.7159 1.53768C65.8918 1.44071 65.9929 1.32712 65.9597 1.17889Z" fill="#E70000"/>
<path d="M119.478 2.60707C119.536 2.6708 119.594 2.70404 119.653 2.75668C119.911 2.66802 120.169 2.60015 120.475 2.65279C120.18 2.38266 119.836 2.20673 119.478 2.60707Z" fill="#E70000"/>
<path d="M14.8812 7.00071C14.8523 6.97456 14.8192 6.9608 14.7931 6.92914C14.7848 7.01035 14.8247 7.01448 14.8812 7.00071Z" fill="#E70000"/>
<path d="M3.3457 1.0223C3.45791 0.982131 3.64215 0.979359 3.81669 0.968277C3.7308 0.928104 3.58812 0.933647 3.3457 1.0223Z" fill="#E70000"/>
<path d="M128.898 2.94629C128.942 2.8816 129.156 2.91876 128.898 2.94629V2.94629Z" fill="#E70000"/>
<path d="M130.03 5.38031C129.972 5.44542 129.926 5.52853 129.912 5.66844C129.941 5.52576 129.981 5.43434 130.03 5.38031Z" fill="#E70000"/>
<path d="M116.74 6.21711L116.718 6.21436C116.788 6.33548 116.776 6.31208 116.74 6.21711Z" fill="#E70000"/>
<path d="M129.271 3.23737C129.178 3.15841 129.069 3.09192 128.951 3.04205C129.002 3.09192 129.099 3.15564 129.271 3.23737Z" fill="#E70000"/>
<path d="M129.235 2.95204C129.323 2.97975 129.392 3.00052 129.457 3.0213C129.493 2.92295 129.468 2.85784 129.235 2.95204Z" fill="#E70000"/>
<path d="M128.537 2.96033C128.685 2.95894 128.822 2.99357 128.951 3.04344C128.904 3.0005 128.883 2.96587 128.899 2.94647C128.822 2.94924 128.714 2.9534 128.537 2.96033Z" fill="#E70000"/>
<path d="M35.9531 5.47873C35.9364 5.45934 35.917 5.44826 35.8977 5.42194C35.6358 5.67128 35.7522 5.63111 35.9531 5.47873Z" fill="#E70000"/>
<path d="M96.9903 7.95385C97.0027 7.94834 97.0096 7.9332 97.0206 7.92769L96.9834 7.9043L96.9903 7.95385Z" fill="#E70000"/>
<path d="M96.0508 8.35586C96.4719 7.62722 96.6922 7.72973 96.9831 7.90288L96.7448 6.15607L96.0508 8.35586Z" fill="#E70000"/>
<path d="M60.271 7.5899L60.9082 8.14678C60.1061 9.01534 59.5465 8.69534 60.1394 9.46832C60.2724 7.5899 62.6619 9.33949 62.7949 7.46108L63.2133 7.86696C63.0914 7.84479 63.0692 7.95561 62.9487 7.93345C63.7591 8.85465 63.597 6.58975 64.6636 6.88342C65.0335 7.03718 65.287 7.31701 65.028 7.53311L65.8716 7.08844C66.1126 7.13138 66.0448 7.45692 65.8051 7.41398L67.0782 7.29623L67.0671 7.35164C67.2555 7.06212 67.6766 6.61607 67.883 6.42628C68.2002 6.70472 67.7168 6.62161 67.793 6.85849L68.5064 6.42074C68.7806 6.91528 68.1864 7.3738 67.7029 7.29069C68.3124 9.18573 68.2986 6.83217 69.6866 7.96531L69.0175 8.18695C69.4165 9.26468 69.9443 8.89066 70.6771 9.57498C70.5081 9.22313 69.2184 7.8628 69.9941 7.4112C70.2047 7.55804 70.4859 7.63285 70.9084 7.26575C70.8946 7.93483 71.3004 7.77968 71.8047 7.75475L71.7465 8.63993C72.2964 8.39751 72.266 7.94591 72.597 7.55527C73.1996 7.65778 73.3077 8.34764 73.4337 8.92945C74.3993 9.0943 72.7937 7.81155 73.9463 7.67441C74.7442 8.03319 75.3191 7.68548 76.2998 7.17986C76.8553 7.49847 76.1849 7.72012 76.3816 7.97778L76.9011 7.28376C77.023 7.30315 76.9772 7.51926 76.9537 7.62869C77.3845 7.36549 77.0133 6.7449 77.6851 6.52048C77.8929 5.54941 79.0039 7.98055 79.8586 6.89312C80.0539 7.14939 79.7436 7.43476 79.7962 7.7783C80.9446 7.08013 80.777 7.27406 81.7328 6.31962L82.503 6.92082C81.9448 6.24066 82.7081 5.47322 83.3771 4.84293C83.1818 4.51601 83.0156 4.23203 82.902 4.0935L83.952 3.6433C84.0725 3.79152 83.959 4.09489 83.7775 4.45921C83.8495 4.38856 83.9202 4.31792 83.9728 4.25142C84.333 4.58804 84.1238 5.09366 83.844 5.58266C83.729 5.40119 83.6085 5.21279 83.4893 5.02717C83.2165 5.55911 82.9588 6.14923 82.9962 6.66871C83.0655 6.56897 83.1985 6.48446 83.3425 6.43737C83.2719 6.58143 83.2262 6.71165 83.2525 6.80031C83.2843 6.8945 83.3993 6.70057 83.5752 6.47892L83.7789 7.47216L83.8481 7.08151L85.1808 7.73259C86.1809 6.7629 87.0716 5.32085 88.6231 4.95237C88.2172 5.66716 88.5012 6.13261 88.45 6.99009C88.0621 6.07166 87.2462 7.3461 86.458 7.14108C86.8694 7.24774 86.7641 7.65501 86.6547 7.79354L88.1023 7.00255C88.0455 7.7035 88.3862 7.53588 88.7464 7.83648C88.5137 6.44291 89.8366 6.93883 90.4295 6.52879C90.4489 6.99424 90.2938 7.46662 89.5928 7.3364C90.3325 8.40028 90.6539 5.73365 91.3853 6.63961C91.2122 6.64654 91.1235 6.57312 91.0473 6.81C91.4629 6.40135 92.434 6.76152 92.1888 7.16047L92.017 7.16186C93.1529 7.38212 95.4926 7.34194 95.7074 6.17278C95.7115 6.32654 95.5051 7.58575 95.4262 7.81986L97.6135 3.95775C97.396 4.96068 97.9917 7.40151 97.0247 7.92791C97.2907 8.08583 97.6204 8.27006 98.2078 7.94037C98.0277 7.78799 97.8005 6.45538 98.0581 6.37642C98.7106 7.53588 98.5194 7.00255 99.3381 8.0041C99.0694 7.77414 99.4393 6.20326 99.877 6.27529C99.798 6.5094 99.8521 7.84202 99.6844 7.99994L100.838 6.49693C100.554 6.76429 100.739 7.81431 100.966 8.26729C100.865 7.95561 101.909 8.34072 102.207 8.20081L101.758 7.81709C102.983 8.11215 103.066 5.68794 104.288 5.82924C104.127 6.14369 103.84 7.79076 104.455 8.01656C104.773 7.2325 105.877 4.24311 106.989 3.68347L107.177 4.14892L108.032 3.66961C107.463 4.84432 105.903 7.29623 105.07 8.23959C105.518 8.62331 105.177 8.784 105.87 8.77569C106.097 9.2162 105.465 9.40598 105.262 9.42122L106.859 9.77585C106.827 8.84218 108.129 8.90313 108.1 8.12462L106.31 9.00287C106.278 8.07059 107.432 6.41105 108.568 6.6313C108.841 7.01641 108.28 8.27699 108.291 8.59006C108.453 8.27699 109.401 8.03042 109.495 8.26314L108.989 8.7369C109.61 9.11785 110.079 7.55388 110.805 8.47924C111.066 8.55266 111.54 9.71628 111.609 9.1691C111.226 8.08583 111.285 4.79722 111.606 4.01454C111.696 4.09073 112.948 5.09782 113.224 5.63669C113.622 6.49001 112.484 7.58852 112.822 8.32132C112.851 8.06782 113.105 7.76722 113.209 7.67025C113.475 7.90159 113.059 8.45292 113.666 8.36704C113.809 7.4306 114.885 8.50694 113.984 7.58436C114.586 7.34333 114.602 7.81016 115.295 7.80185C115.102 7.18125 116.008 5.75859 116.612 5.51894C116.567 5.75582 116.684 6.07581 116.743 6.22126C117.945 6.36533 118.574 6.82662 119.697 6.88896C119.79 7.12168 120.321 7.42644 120.07 7.81986C120.24 7.66055 120.404 7.34887 120.752 7.34194C121.385 8.19111 119.972 7.4306 120.438 8.43768C120.508 7.8905 121.371 7.72289 121.882 7.40566C121.77 6.55234 120.747 7.18818 120.236 7.5054C120.29 6.33763 121.209 5.15738 122.412 4.67531C123.361 4.43151 122.781 5.44967 122.951 5.29175C124.698 5.58127 124.547 3.32607 125.966 4.24034C126.509 5.01193 125.919 5.72119 126.02 6.26421C125.245 6.50801 124.875 5.73504 124.357 5.73919L124.975 6.12291C124.72 6.35841 124.204 6.52048 123.936 6.29191C124.388 6.98316 126.897 6.56481 128.221 7.24774C128.474 7.01086 128.902 6.7726 128.721 6.46369L128.287 6.5468C127.923 5.92759 129.136 5.7572 128.606 5.45106C129.203 5.05626 129.882 4.42597 130.676 4.80414L130.784 5.66024C130.779 5.41089 130.281 5.1283 130.04 5.37487C130.397 5.01609 131.223 6.5842 131.648 5.49123L131.11 4.87618C131.712 4.47861 132.471 3.61282 133.176 3.91619C132.893 3.06287 133.006 4.00346 132.546 2.99915C132.924 4.24034 130.712 2.85647 131.356 4.17247C130.892 3.01023 130.473 3.64745 129.839 2.64314C129.846 2.92434 130.055 3.19031 129.459 3.0227C129.429 3.10304 129.358 3.20278 129.314 3.26235C129.297 3.25265 129.29 3.24849 129.275 3.2388L129.305 3.27343C129.278 3.31499 129.276 3.3233 129.318 3.2859C129.456 3.41611 129.565 3.56988 129.605 3.72641C129.272 4.35393 128.314 4.28606 127.974 4.60328C127.622 4.45229 128.139 4.28883 127.959 3.9813L127.449 4.45506C127.433 3.83307 126.55 3.37594 127.413 3.05317L126.655 2.98806C126.225 2.61681 125.618 2.4492 125.226 2.69162C124.874 2.54063 124.288 3.33438 124.623 2.86478L123.414 3.1917L123.408 3.03378C122.237 2.89802 120.943 3.94528 119.654 2.75673C119.25 2.89387 118.834 3.06564 118.18 2.85785L118.077 2.31344C117.561 2.47552 116.578 1.69977 116.334 2.24972C115.852 0.775804 113.883 1.81336 113.004 1.51276L112.939 2.2137C112.326 2.14306 111.727 2.31483 110.954 2.55863L110.973 3.18062C110.294 3.65715 109.302 2.65699 108.259 2.66946C108.34 2.43535 108.601 2.51015 108.781 2.66253C107.598 1.19969 106.119 3.55325 105.034 2.4769C104.745 2.68885 104.544 2.60158 104.354 2.43673C104.38 2.43673 104.405 2.42565 104.425 2.40764C104.396 2.40072 104.354 2.39517 104.31 2.39517C104.191 2.28158 104.066 2.15137 103.933 2.0447C104.044 2.20124 104.152 2.33145 104.247 2.39379C104.03 2.39656 103.699 2.45751 103.371 2.59604L103.26 1.9228C103.233 1.93111 103.213 1.92834 103.185 1.93804C102.879 1.67622 102.919 2.24141 103.067 2.75119C102.9 2.85231 102.746 2.97698 102.625 3.13213C102.412 2.04332 101.766 3.45213 101.462 2.28851C101.223 2.83707 99.8271 2.63067 99.6096 3.79983C99.6055 3.64468 99.5127 3.56849 99.6872 3.56711C99.3354 3.41611 98.9807 3.26373 98.6469 3.57957L98.5278 2.72487L97.6994 3.82615C97.2436 3.2859 97.058 2.97698 97.5553 2.34807C96.3751 3.29559 96.6161 2.68054 95.6076 3.62667L95.6755 3.08088C95.3278 3.08503 94.746 3.7929 94.5534 3.32884C93.8165 2.22894 90.7204 3.01023 88.7589 2.01284C89.09 3.63637 87.8571 1.26619 87.7352 2.51569C87.6327 2.13197 87.3612 1.90895 87.695 1.58618C86.6658 1.93388 86.1865 0.940648 85.4481 1.97821C85.3442 1.59172 85.6836 1.42549 85.5894 1.19554C85.5049 1.27588 85.2556 1.51969 85.1558 1.28835C85.0602 1.0584 85.3151 0.971124 85.4814 0.809049C84.4396 0.847836 84.2956 2.02115 84.1848 3.12244C83.675 2.58772 83.409 2.65422 83.0073 3.36901C82.8341 3.0033 82.5405 2.6182 83.1901 2.50322C82.8286 2.44227 80.9876 1.91864 80.9225 2.80244C80.8158 2.57526 80.4168 2.72486 80.3185 2.8246C79.5053 2.75118 79.4361 2.66946 78.6326 2.73456L78.8501 2.88417C78.5024 3.9439 78.1783 3.10581 77.53 3.21802L77.5521 3.10997C76.0948 2.30236 76.9024 3.46182 75.4687 2.54617L75.5296 3.21109C75.3537 4.63653 74.2594 2.33699 73.3977 2.86201L73.6928 3.24849C73.2176 3.72502 72.453 1.27311 71.9931 1.08333C71.8947 0.955886 72.1579 0.888009 72.302 0.799352C71.1079 -0.0747481 72.1219 1.66514 71.209 1.84523C71.0552 1.37147 71.457 0.656671 70.8475 0.552776C70.5538 0.166288 69.0383 2.03223 68.2279 1.11242C68.4025 1.47951 68.5742 1.84384 68.1476 2.10565C67.4993 2.21925 66.4354 0.695458 65.8245 1.82168C65.7441 1.71917 65.7164 1.62358 65.7151 1.53354C65.2136 1.81613 64.0985 1.98237 63.7882 2.59327C63.3837 0.28819 60.6963 3.63221 60.7544 1.51692L59.2334 1.59172L59.2777 1.37701C58.3108 1.21216 57.9562 1.71086 57.6057 2.21093C57.3841 2.06133 57.5517 1.86739 57.5725 1.75795C56.1637 1.29666 56.0196 1.38255 54.8117 2.40764L54.7008 1.71778C54.3712 2.10842 52.6714 0.590178 51.2668 1.35623C51.282 1.27865 51.3125 1.14705 51.4247 1.05147C49.8469 1.81891 47.708 -0.944693 47.0958 1.54047L46.054 2.13197C47.3853 2.35916 45.8393 3.21248 46.3824 3.64052C45.856 3.77351 45.0359 2.85231 45.6842 2.7401L45.7839 2.86755C46.0402 1.56956 44.1313 2.3647 44.1798 1.47813C41.5533 1.4712 38.9961 0.782729 36.5331 0.702384L36.806 1.7164L35.9486 1.65406C35.7241 1.41856 35.6521 0.860304 36.2658 0.904632C35.9486 0.328363 35.2324 1.38255 35.2144 1.60142C34.0175 1.18723 35.6937 0.42256 35.3252 0.39624L34.8251 0.469661L34.9373 0.587407C34.5287 1.00021 34.4885 1.43934 33.7529 1.38532C33.2889 1.1803 33.5188 0.75918 33.336 0.721777C33.3373 0.648359 33.2764 0.613729 33.0548 0.689918L31.9729 0.599875L32.4009 1.40194C31.9175 1.79536 31.3827 1.35623 31.8759 2.26496C31.1528 0.86446 27.842 1.74549 27.3946 1.3119C26.7199 1.89094 26.0578 1.87847 25.2363 1.80505C25.44 1.97267 25.5591 2.87309 24.8526 2.7595C25.1144 0.904633 23.5574 1.94773 22.9853 0.610957C23.4964 1.49891 20.9697 0.820132 21.7732 2.0821C21.1817 1.92973 21.7372 1.38809 21.2883 0.94896C19.8809 1.66237 18.1854 0.468276 16.4455 0.705156C16.4191 0.948962 16.7114 1.3216 16.3388 1.68315L15.4148 0.461349C15.0713 0.579096 15.1045 1.866 14.4729 1.01822C14.5629 1.22324 14.6959 1.53354 14.4659 1.60973C11.0499 0.38239 7.51053 2.62236 4.0072 0.429487C4.4865 0.894935 4.17343 0.946189 3.81465 0.968353C4.05015 1.07779 3.82158 1.57094 3.87283 1.89925L2.40307 1.00022C2.15788 1.92003 0.846035 1.08333 0.71582 1.9602L1.17157 1.79674C0.585606 2.83846 2.07753 4.08381 2.0152 5.41089C2.6732 4.22787 3.84097 7.12861 4.92702 5.43167C5.17775 5.69902 4.72338 5.86248 4.86191 6.16863C5.1348 5.59513 5.47419 5.47461 6.11141 5.7198L6.04215 5.8611C7.81806 5.70041 8.58826 6.25036 10.5844 6.59944L10.432 5.94421C10.8615 6.02733 10.9529 6.23235 11.1538 6.39442C11.64 5.39288 9.94998 6.35287 10.3891 5.2502C10.9668 6.56343 13.4214 5.27513 13.8149 6.78922C14.477 6.80031 13.6168 6.02733 14.2789 6.0398L14.4548 6.45122L14.6197 5.92344C15.0533 6.01209 15.2749 6.52741 15.2915 6.87511C15.1863 6.83355 14.9937 6.97069 14.8801 6.99978C15.4453 7.48601 16.4649 6.84186 16.6588 6.99978L16.023 6.74351C17.8266 6.36672 20.0305 6.91528 21.7732 6.0869L21.6416 5.7766C22.9728 5.21002 22.7082 6.12291 24.1711 5.86248L24.117 5.9359C24.4093 5.62837 24.8014 5.47461 25.2017 5.51201C24.8305 5.87357 25.8943 6.21988 25.4081 6.61884C26.8543 6.01071 26.1243 6.13953 27.0815 4.99254L27.3004 5.50786C27.6259 5.04379 27.655 4.7986 28.3864 4.66977C27.7852 5.10752 28.8491 5.45383 28.1759 6.03426C29.7024 7.16463 30.4588 4.90942 31.1528 6.55511C31.8648 5.13661 29.8299 5.76136 30.226 5.45799C29.8977 4.99254 30.8134 4.39688 31.2941 4.54094C31.7845 4.57557 32.1155 6.36533 33.347 6.34178C33.2251 6.33486 33.2154 6.44291 33.0935 6.4346C33.5521 6.79892 33.9995 5.94698 34.5605 6.53988C34.8833 5.68101 35.2947 6.59113 35.3945 5.49539L34.2627 5.74473C34.9055 5.46076 35.5177 4.18077 36.5678 4.80691C36.4833 5.02717 36.1674 5.31669 35.9499 5.47738C36.2547 5.80153 36.5456 5.26682 36.8628 5.59928C36.7617 6.69641 35.4873 5.83201 34.7946 6.66593C35.1202 7.13 36.0982 5.87772 35.7435 7.0635C36.2533 5.55495 36.9556 7.2616 37.7993 6.10906L37.7369 6.76567C37.8699 6.66317 38.147 6.35425 38.3894 6.37087L37.9406 7.22143C38.6235 6.49693 39.2358 7.8628 39.8855 7.46938C38.5307 7.48462 39.5904 6.67702 39.0225 6.19495C40.7056 5.32223 39.9644 7.91821 41.8387 7.61068C41.5838 7.70211 40.8926 7.21173 41.2929 6.90974C41.6475 7.04688 42.1144 7.30038 42.3291 7.6467C43.5703 7.52618 42.1476 6.96515 42.6809 6.56758C43.0924 7.37934 43.2946 6.25728 43.8418 6.01486L43.8376 6.68256C45.245 7.14662 44.231 5.29868 45.4972 5.84863L44.9458 6.76152L45.6121 6.53849L45.4639 7.29484C46.194 6.74905 46.417 6.90004 47.1207 7.13138C46.9628 6.65762 47.2315 5.92066 47.859 5.91651C48.2802 6.32377 47.6097 6.54542 48.499 6.472C48.2926 6.88481 48.0641 7.40289 47.6873 6.77953C47.6443 6.99701 47.4836 7.19372 47.4393 7.40843C47.8923 7.87527 48.5932 7.54142 48.9132 7.5428C48.7899 7.51371 48.6431 7.47493 48.5683 7.37796L49.8704 6.48308C50.0685 6.73935 49.9037 6.93606 49.7416 7.13C50.0034 7.0635 50.1891 6.76152 50.5728 6.71303C50.4647 7.25329 50.4786 7.81432 49.9328 8.05812L51.167 7.48462C51.246 7.72289 51.7849 8.14955 51.6228 8.34487C52.296 8.68149 53.3073 7.33224 54.2008 7.77691C54.2493 7.67302 54.3448 7.57467 54.5388 7.50125C55.3838 7.64532 56.1207 8.32963 57.1375 7.61068L57.6875 8.59699C58.4771 8.39613 56.9408 7.35164 58.2568 7.01779C59.1891 6.72966 58.5851 7.85588 58.9051 8.1357C59.3747 7.6564 60.1976 6.6784 61.0329 7.49155C60.7531 7.67302 60.5342 7.5248 60.271 7.5899ZM69.9734 7.40012C69.7822 7.53588 69.3971 7.95977 69.2696 7.56081C69.5024 6.80169 69.6589 7.17155 69.9734 7.40012ZM84.7624 6.16031C84.6156 6.3778 84.4036 6.26282 84.1667 6.00378C84.3454 5.95391 84.5449 5.983 84.7624 6.16031ZM126.046 3.351L126.024 3.38148C125.617 3.10027 125.762 3.21248 126.046 3.351ZM126.903 3.68208C126.995 3.59481 126.993 3.50061 126.962 3.40503C126.892 3.57126 126.697 3.57403 126.475 3.51447C126.529 3.69316 126.636 3.81922 126.903 3.68208ZM33.2376 0.969741L33.4066 1.14428C33.0215 1.33683 33.1296 1.16368 33.2376 0.969741Z" fill="#E70000"/>
<path d="M83.0612 7.0316C83.0127 6.91663 83.0016 6.79334 82.9933 6.66589C82.9157 6.7781 82.9088 6.90693 83.0612 7.0316Z" fill="#E70000"/>
<path d="M54.2363 7.78933C54.2267 7.78382 54.2171 7.78657 54.2074 7.78107C54.1909 7.81961 54.1813 7.8609 54.1758 7.89944L54.2363 7.78933Z" fill="#E70000"/>
<path d="M113.151 8.68144C112.978 8.57616 112.882 8.4501 112.822 8.31989C112.805 8.48335 112.881 8.62464 113.151 8.68144Z" fill="#E70000"/>
<path d="M131.58 2.77466L131.014 2.92149C131.285 2.90072 131.374 3.05171 131.504 3.1653C131.5 3.00877 131.406 2.77743 131.58 2.77466Z" fill="#E70000"/>
<path d="M136.207 7.14244C136.294 7.06486 136.38 7.14243 136.466 7.06347L136.461 6.75317C136.113 6.75456 135.855 6.99283 136.207 7.14244Z" fill="#E70000"/>
<path d="M131.982 5.01739C131.998 5.58119 132.358 5.40803 132.754 5.32353C132.73 5.32353 132.71 5.32768 132.685 5.32076C132.841 4.54086 132.412 4.77912 131.982 5.01739Z" fill="#E70000"/>
<path d="M132.845 5.30834C132.967 5.28756 133.09 5.27925 133.206 5.31249C133.27 5.00081 133.064 5.23907 132.845 5.30834Z" fill="#E70000"/>
<path d="M128.029 3.3648C128.206 3.51856 128.18 2.65277 128.275 2.88688C128.516 2.18178 126.994 3.69034 128.029 3.3648Z" fill="#E70000"/>
<path d="M132.202 6.88339L132.099 6.18384L131.851 6.73101L132.202 6.88339Z" fill="#E70000"/>
<path d="M129.146 6.22261L129.759 6.44563C129.755 6.32927 129.838 6.26555 129.938 6.21845C129.556 6.17551 129.141 6.01759 129.146 6.22261Z" fill="#E70000"/>
<path d="M129.938 6.21844C130.139 6.24061 130.331 6.23506 130.447 6.12701C130.339 6.1284 130.103 6.14087 129.938 6.21844Z" fill="#E70000"/>
<path d="M131.34 7.04965L131.161 6.89589L130.725 6.82385L131.34 7.04965Z" fill="#E70000"/>
<path d="M122.441 5.75995L121.749 5.92479C121.668 6.1589 121.846 6.31405 122.105 6.23232C122.277 6.0744 122.535 5.99544 122.441 5.75995Z" fill="#E70000"/>
<path d="M124.408 7.76027C124.231 7.60789 124.226 7.45135 124.134 7.21863L124.071 8.07749L124.408 7.76027Z" fill="#E70000"/>
<path d="M122.413 7.86279C122.334 8.0969 121.392 8.49863 122.258 8.48755C122.338 8.25482 123.03 8.08998 122.413 7.86279Z" fill="#E70000"/>
<path d="M112.203 6.27246L112.376 6.27108L112.415 4.8595L112.203 6.27246Z" fill="#E70000"/>
<path d="M103.022 9.20232C103.815 9.57911 103.25 8.34207 103.96 8.79921C104.163 8.47644 103.38 8.42657 103.585 8.14813C103.085 8.47505 102.837 8.2645 103.022 9.20232Z" fill="#E70000"/>
<path d="M103.584 8.14817C103.666 8.09692 103.75 8.03319 103.842 7.94592C103.698 8.02627 103.628 8.08999 103.584 8.14817Z" fill="#E70000"/>
<path d="M1.41687 0.288135L0.887695 0L1.2354 0.470989L1.41687 0.288135Z" fill="#E70000"/>
<path d="M0.437743 1.3479L0.293675 0.450256L0 1.26756C0.117747 1.226 0.343545 1.14566 0.437743 1.3479Z" fill="#E70000"/>
<path d="M71.3676 9.24664L71.4119 9.03054C71.3385 8.79504 71.2166 8.77427 70.9756 8.73132L71.3676 9.24664Z" fill="#E70000"/>
<path d="M64.3529 8.39886L64.4734 8.41964L64.2656 7.60095L64.3529 8.39886Z" fill="#E70000"/>
<path d="M58.4293 9.28821C58.669 9.32839 58.9557 9.15384 59.1981 9.1954C58.6703 9.32838 58.385 8.27282 58.4293 9.28821Z" fill="#E70000"/>
</svg>
