<svg width="157" height="10" viewBox="0 0 157 10" fill="none" xmlns="http://www.w3.org/2000/svg">
<path d="M156.779 4.71419C157.006 4.77652 156.959 4.19333 157 4.09082C156.605 4.20026 156.777 4.86518 156.779 4.71419Z" fill="#00AE44"/>
<path d="M152.876 5.843L152.958 5.60889L152.359 6.16161L152.876 5.843Z" fill="#00AE44"/>
<path d="M149.305 5.65748C149.583 6.6618 150.608 5.5619 151.225 5.94424L151.315 6.17557L151.649 5.39429C150.869 5.48156 149.832 5.95809 149.305 5.65748Z" fill="#00AE44"/>
<path d="M147.525 3.42993C147.619 3.81919 147.091 3.73885 147.961 3.57123C147.921 3.5269 147.91 3.50197 147.886 3.47011C147.81 3.47149 147.704 3.46456 147.525 3.42993Z" fill="#00AE44"/>
<path d="M147.889 3.46884C147.661 3.135 148.265 3.46053 147.889 3.46884V3.46884Z" fill="#00AE44"/>
<path d="M146.136 3.60453L146.652 3.28592C146.561 3.05458 146.122 2.98116 146.296 2.82324C145.776 2.9867 145.868 3.21666 146.136 3.60453Z" fill="#00AE44"/>
<path d="M145.625 4.30129L145.89 4.16831C145.851 4.07134 145.784 4.03532 145.625 4.30129Z" fill="#00AE44"/>
<path d="M146.451 3.88843L145.889 4.16825C145.951 4.33171 145.94 4.65171 146.145 4.0699C146.085 4.3608 146.209 4.08375 146.451 3.88843Z" fill="#00AE44"/>
<path d="M146.75 4.05338C147.016 4.28195 147.368 4.43433 146.851 4.75155C147.807 4.66428 147.709 3.96334 146.75 4.05338Z" fill="#00AE44"/>
<path d="M149.063 6.66858L149.417 6.97749L149.758 6.66026C149.588 6.8168 149.057 6.35828 149.063 6.66858Z" fill="#00AE44"/>
<path d="M143.075 2.94092C143.032 3.14871 143.211 3.50887 143.232 3.779L143.611 3.55597C143.432 3.40359 143.083 3.25399 143.075 2.94092Z" fill="#00AE44"/>
<path d="M143.232 3.78052L142.664 4.11436C143.152 4.18086 143.251 4.01324 143.232 3.78052Z" fill="#00AE44"/>
<path d="M145.472 5.39285L146.417 4.67944L145.299 5.39424L145.472 5.39285Z" fill="#00AE44"/>
<path d="M140.983 2.81205L141.319 2.34106L140.727 3.04893L140.983 2.81205Z" fill="#00AE44"/>
<path d="M139.59 2.82877C139.843 2.43812 139.312 2.13198 139.568 1.89648C139.187 1.95051 138.847 2.2802 138.539 2.57803C138.858 2.41873 139.183 2.47829 139.59 2.82877Z" fill="#00AE44"/>
<path d="M138.027 3.00609C138.187 2.91743 138.354 2.75259 138.538 2.57666C138.369 2.66116 138.202 2.7886 138.027 3.00609Z" fill="#00AE44"/>
<path d="M141.735 3.96337C141.701 3.83454 141.638 3.49792 141.338 3.34277L141.521 3.94536C141.587 3.9509 141.659 3.95783 141.735 3.96337Z" fill="#00AE44"/>
<path d="M141.528 3.9634L141.521 3.944C141.29 3.91491 141.128 3.89552 141.059 3.88721C141.117 3.89829 141.258 3.92045 141.528 3.9634Z" fill="#00AE44"/>
<path d="M141.788 3.96888L141.734 3.96338C141.752 4.02394 141.765 4.04321 141.788 3.96888Z" fill="#00AE44"/>
<path d="M144.069 4.7876C143.728 5.10344 143.037 5.42343 143.658 5.95953C143.911 5.56612 143.557 5.26136 144.069 4.7876Z" fill="#00AE44"/>
<path d="M142.016 4.72096L142.589 4.88442C142.588 4.72788 142.495 4.49516 142.664 4.33862L142.016 4.72096Z" fill="#00AE44"/>
<path d="M141.723 4.89427L142.018 4.72111L141.806 4.66016L141.723 4.89427Z" fill="#00AE44"/>
<path d="M138.995 3.60868C138.731 3.85387 138.452 3.86219 138.141 3.88712C138.468 4.0201 138.807 4.10045 139.135 4.1143C139.189 3.93006 139.351 3.60453 138.995 3.60868Z" fill="#00AE44"/>
<path d="M140.224 3.83301L140.166 3.86329C140.198 3.91422 140.224 3.93211 140.224 3.83301Z" fill="#00AE44"/>
<path d="M135.082 3.7334C135.096 3.76643 135.111 3.80635 135.125 3.84214L135.141 3.74028L135.082 3.7334Z" fill="#00AE44"/>
<path d="M139.184 4.2264C139.428 4.35246 139.584 4.21531 139.737 4.04077C139.547 4.09064 139.348 4.11973 139.133 4.11281C139.109 4.19592 139.102 4.25133 139.184 4.2264Z" fill="#00AE44"/>
<path d="M137.16 3.24019C137.285 3.37041 137.425 3.48261 137.577 3.58651C137.459 3.39257 137.216 3.0892 137.16 3.24019Z" fill="#00AE44"/>
<path d="M140.091 3.69521L140.13 3.67044C140.055 3.54105 140.061 3.60299 140.091 3.69521Z" fill="#00AE44"/>
<path d="M140.09 3.6958C139.957 3.77476 139.848 3.91606 139.738 4.04212C139.893 4.00194 140.039 3.94654 140.166 3.8648C140.136 3.82048 140.11 3.75537 140.09 3.6958Z" fill="#00AE44"/>
<path d="M133.955 7.48186C134.029 6.93606 134.713 6.4623 135.249 7.07736C135.828 6.69364 135.561 4.87341 135.126 3.84277C135.097 4.07965 135.084 4.3013 134.493 4.59636C134.678 4.90527 135.731 5.35825 135.218 5.83062C134.441 6.07581 134.605 5.60621 134.25 5.29868C134.529 5.99686 133.231 6.24481 133.343 7.25744L134.029 6.93745C134.034 7.09398 133.778 7.33086 133.955 7.48186Z" fill="#00AE44"/>
<path d="M136.22 3.95226L136.46 3.89547C136.197 3.78742 136.015 3.55885 135.681 3.11279C135.273 3.36075 135.18 3.56023 135.143 3.7417L136.303 3.87469L136.22 3.95226Z" fill="#00AE44"/>
<path d="M137.52 3.94659C137.304 4.53394 136.722 4.75974 137.035 5.42051C137.732 5.41358 137.548 4.94675 137.977 4.70849C136.85 4.8013 138.318 4.39126 137.526 4.01447C137.753 3.92443 137.952 3.90226 138.139 3.88703C137.941 3.8053 137.751 3.70556 137.576 3.58643L137.599 3.62383H137.605L137.603 3.63214C137.648 3.70833 137.66 3.75543 137.609 3.70971C137.605 3.71664 137.591 3.71803 137.585 3.7208C137.573 3.80253 137.548 3.87317 137.521 3.94244C137.204 3.80253 137.479 3.7859 137.585 3.7208L137.603 3.63214L137.599 3.62383L136.459 3.89534C136.693 3.99092 136.99 3.98815 137.52 3.94659Z" fill="#00AE44"/>
<path d="M142.987 7.2108C142.957 7.15712 142.96 7.11445 142.96 7.07178C142.883 7.1406 142.854 7.18878 142.987 7.2108Z" fill="#00AE44"/>
<path d="M142.544 6.8293C142.631 6.74896 142.712 6.51485 142.975 6.58965C143.194 6.77943 142.957 6.87502 142.958 7.07172C143.126 6.92211 143.541 6.67138 143.055 6.35693L142.972 6.4345C142.533 6.20732 141.993 5.43573 142.077 5.35815C142.178 5.89979 142.274 6.28905 142.544 6.8293Z" fill="#00AE44"/>
<path d="M139.995 5.53833L139.043 5.78491L139.49 6.32377L139.482 6.01209C140.008 6.16031 139.916 5.77382 139.995 5.53833Z" fill="#00AE44"/>
<path d="M134.99 3.43261L135.148 2.80786L134.561 3.67227L134.99 3.43261Z" fill="#00AE44"/>
<path d="M133.772 3.44651L133.846 2.9021L133.508 3.21656L133.772 3.44651Z" fill="#00AE44"/>
<path d="M65.0271 7.53589L64.75 7.68411C64.8802 7.6384 64.9647 7.58853 65.0271 7.53589Z" fill="#00AE44"/>
<path d="M67.0104 7.62177L67.0658 7.35303C66.9702 7.49987 66.9287 7.60792 67.0104 7.62177Z" fill="#00AE44"/>
<path d="M103.933 2.04621C103.553 1.51565 103.138 0.699735 103.161 1.31895L103.259 1.92569C103.543 1.83011 103.755 1.90907 103.933 2.04621Z" fill="#00AE44"/>
<path d="M83.375 4.84009L83.4872 5.02572C83.5911 4.82347 83.6867 4.63369 83.7753 4.45776C83.6521 4.57551 83.5177 4.70434 83.375 4.84009Z" fill="#00AE44"/>
<path d="M83.0139 7.31831L82.5 6.91797C82.6122 7.05649 82.7784 7.19087 83.0139 7.31831Z" fill="#00AE44"/>
<path d="M54.1748 7.90161L53.8438 8.50559C54.3438 8.51528 54.1291 8.20083 54.1748 7.90161Z" fill="#00AE44"/>
<path d="M121.32 3.05879C120.985 2.80668 120.716 2.69447 120.477 2.6543C120.876 3.01862 121.186 3.55195 121.32 3.05879Z" fill="#00AE44"/>
<path d="M65.9587 1.17896C65.7883 1.28423 65.7121 1.40475 65.7149 1.53774C65.8908 1.44077 65.992 1.32718 65.9587 1.17896Z" fill="#00AE44"/>
<path d="M119.477 2.60701C119.535 2.67073 119.593 2.70398 119.652 2.75662C119.91 2.66796 120.168 2.60009 120.474 2.65273C120.179 2.3826 119.835 2.20667 119.477 2.60701Z" fill="#00AE44"/>
<path d="M14.8821 7.00077C14.8532 6.97462 14.8202 6.96086 14.7941 6.9292C14.7858 7.01041 14.8257 7.01454 14.8821 7.00077Z" fill="#00AE44"/>
<path d="M3.3457 1.0223C3.45791 0.982131 3.64215 0.979359 3.81669 0.968277C3.7308 0.928104 3.58812 0.933647 3.3457 1.0223Z" fill="#00AE44"/>
<path d="M128.898 2.94629C128.942 2.8816 129.156 2.91876 128.898 2.94629V2.94629Z" fill="#00AE44"/>
<path d="M130.03 5.38037C129.972 5.44548 129.926 5.52859 129.912 5.66851C129.941 5.52582 129.981 5.4344 130.03 5.38037Z" fill="#00AE44"/>
<path d="M116.741 6.21711L116.719 6.21436C116.789 6.33548 116.777 6.31208 116.741 6.21711Z" fill="#00AE44"/>
<path d="M129.271 3.23731C129.178 3.15835 129.069 3.09186 128.951 3.04199C129.002 3.09186 129.099 3.15558 129.271 3.23731Z" fill="#00AE44"/>
<path d="M129.234 2.95204C129.322 2.97975 129.391 3.00052 129.456 3.0213C129.492 2.92295 129.467 2.85784 129.234 2.95204Z" fill="#00AE44"/>
<path d="M128.537 2.96039C128.685 2.959 128.822 2.99363 128.951 3.0435C128.904 3.00056 128.883 2.96593 128.899 2.94653C128.822 2.9493 128.714 2.95346 128.537 2.96039Z" fill="#00AE44"/>
<path d="M35.9531 5.47867C35.9364 5.45928 35.917 5.44819 35.8977 5.42188C35.6358 5.67122 35.7522 5.63105 35.9531 5.47867Z" fill="#00AE44"/>
<path d="M96.9913 7.95385C97.0037 7.94834 97.0105 7.9332 97.0215 7.92769L96.9844 7.9043L96.9913 7.95385Z" fill="#00AE44"/>
<path d="M96.0508 8.3558C96.4719 7.62716 96.6922 7.72967 96.9831 7.90282L96.7448 6.15601L96.0508 8.3558Z" fill="#00AE44"/>
<path d="M60.27 7.5899L60.9072 8.14678C60.1052 9.01534 59.5455 8.69534 60.1384 9.46832C60.2714 7.5899 62.661 9.33949 62.794 7.46108L63.2123 7.86696C63.0904 7.84479 63.0682 7.95561 62.9477 7.93345C63.7581 8.85465 63.596 6.58975 64.6627 6.88342C65.0325 7.03718 65.286 7.31701 65.027 7.53311L65.8706 7.08844C66.1117 7.13138 66.0438 7.45692 65.8041 7.41398L67.0772 7.29623L67.0661 7.35164C67.2545 7.06212 67.6756 6.61607 67.882 6.42628C68.1992 6.70472 67.7158 6.62161 67.792 6.85849L68.5054 6.42074C68.7797 6.91528 68.1854 7.3738 67.7019 7.29069C68.3114 9.18573 68.2976 6.83217 69.6856 7.96531L69.0165 8.18695C69.4155 9.26468 69.9433 8.89066 70.6761 9.57498C70.5071 9.22313 69.2174 7.8628 69.9932 7.4112C70.2037 7.55804 70.4849 7.63285 70.9074 7.26575C70.8936 7.93483 71.2995 7.77968 71.8037 7.75475L71.7455 8.63993C72.2955 8.39751 72.265 7.94591 72.5961 7.55527C73.1987 7.65778 73.3067 8.34764 73.4328 8.92945C74.3983 9.0943 72.7928 7.81155 73.9453 7.67441C74.7432 8.03319 75.3181 7.68548 76.2989 7.17986C76.8544 7.49847 76.1839 7.72012 76.3806 7.97778L76.9001 7.28376C77.022 7.30315 76.9763 7.51926 76.9527 7.62869C77.3835 7.36549 77.0123 6.7449 77.6841 6.52048C77.8919 5.54941 79.0029 7.98055 79.8576 6.89312C80.0529 7.14939 79.7426 7.43476 79.7953 7.7783C80.9436 7.08013 80.776 7.27406 81.7319 6.31962L82.5021 6.92082C81.9438 6.24066 82.7071 5.47322 83.3762 4.84293C83.1808 4.51601 83.0146 4.23203 82.901 4.0935L83.951 3.6433C84.0716 3.79152 83.958 4.09489 83.7765 4.45921C83.8485 4.38856 83.9192 4.31792 83.9718 4.25142C84.332 4.58804 84.1228 5.09366 83.843 5.58266C83.728 5.40119 83.6075 5.21279 83.4884 5.02717C83.2155 5.55911 82.9578 6.14923 82.9952 6.66871C83.0645 6.56897 83.1975 6.48446 83.3415 6.43737C83.2709 6.58143 83.2252 6.71165 83.2515 6.80031C83.2834 6.8945 83.3983 6.70057 83.5743 6.47892L83.7779 7.47216L83.8472 7.08151L85.1798 7.73259C86.1799 6.7629 87.0707 5.32085 88.6222 4.95237C88.2163 5.66716 88.5003 6.13261 88.449 6.99009C88.0611 6.07166 87.2452 7.3461 86.457 7.14108C86.8684 7.24774 86.7631 7.65501 86.6537 7.79354L88.1013 7.00255C88.0445 7.7035 88.3853 7.53588 88.7454 7.83648C88.5127 6.44291 89.8356 6.93883 90.4285 6.52879C90.4479 6.99424 90.2928 7.46662 89.5918 7.3364C90.3316 8.40028 90.653 5.73365 91.3844 6.63961C91.2112 6.64654 91.1226 6.57312 91.0464 6.81C91.4619 6.40135 92.433 6.76152 92.1878 7.16047L92.016 7.16186C93.152 7.38212 95.4917 7.34194 95.7064 6.17278C95.7105 6.32654 95.5041 7.58575 95.4252 7.81986L97.6125 3.95775C97.395 4.96068 97.9907 7.40151 97.0238 7.92791C97.2897 8.08583 97.6194 8.27006 98.2068 7.94037C98.0267 7.78799 97.7995 6.45538 98.0572 6.37642C98.7096 7.53588 98.5185 7.00255 99.3372 8.0041C99.0684 7.77414 99.4383 6.20326 99.876 6.27529C99.7971 6.5094 99.8511 7.84202 99.6835 7.99994L100.837 6.49693C100.553 6.76429 100.738 7.81431 100.965 8.26729C100.864 7.95561 101.908 8.34072 102.206 8.20081L101.757 7.81709C102.982 8.11215 103.065 5.68794 104.287 5.82924C104.126 6.14369 103.839 7.79076 104.454 8.01656C104.772 7.2325 105.876 4.24311 106.988 3.68347L107.176 4.14892L108.031 3.66961C107.462 4.84432 105.902 7.29623 105.069 8.23959C105.517 8.62331 105.176 8.784 105.869 8.77569C106.096 9.2162 105.464 9.40598 105.261 9.42122L106.858 9.77585C106.826 8.84218 108.128 8.90313 108.099 8.12462L106.309 9.00287C106.277 8.07059 107.431 6.41105 108.567 6.6313C108.84 7.01641 108.279 8.27699 108.29 8.59006C108.452 8.27699 109.4 8.03042 109.494 8.26314L108.988 8.7369C109.609 9.11785 110.078 7.55388 110.804 8.47924C111.065 8.55266 111.539 9.71628 111.608 9.1691C111.225 8.08583 111.284 4.79722 111.605 4.01454C111.695 4.09073 112.947 5.09782 113.223 5.63669C113.621 6.49001 112.483 7.58852 112.821 8.32132C112.85 8.06782 113.104 7.76722 113.208 7.67025C113.474 7.90159 113.058 8.45292 113.665 8.36704C113.808 7.4306 114.884 8.50694 113.984 7.58436C114.585 7.34333 114.601 7.81016 115.294 7.80185C115.101 7.18125 116.007 5.75859 116.611 5.51894C116.566 5.75582 116.683 6.07581 116.742 6.22126C117.944 6.36533 118.573 6.82662 119.696 6.88896C119.789 7.12168 120.32 7.42644 120.069 7.81986C120.239 7.66055 120.403 7.34887 120.751 7.34194C121.384 8.19111 119.971 7.4306 120.437 8.43768C120.507 7.8905 121.37 7.72289 121.881 7.40566C121.769 6.55234 120.746 7.18818 120.235 7.5054C120.289 6.33763 121.208 5.15738 122.411 4.67531C123.36 4.43151 122.78 5.44967 122.95 5.29175C124.697 5.58127 124.546 3.32607 125.965 4.24034C126.508 5.01193 125.918 5.72119 126.019 6.26421C125.244 6.50801 124.874 5.73504 124.356 5.73919L124.974 6.12291C124.719 6.35841 124.203 6.52048 123.935 6.29191C124.387 6.98316 126.896 6.56481 128.22 7.24774C128.473 7.01086 128.901 6.7726 128.72 6.46369L128.286 6.5468C127.922 5.92759 129.136 5.7572 128.605 5.45106C129.202 5.05626 129.881 4.42597 130.675 4.80414L130.783 5.66024C130.778 5.41089 130.28 5.1283 130.039 5.37487C130.396 5.01609 131.222 6.5842 131.647 5.49123L131.11 4.87618C131.711 4.47861 132.47 3.61282 133.175 3.91619C132.892 3.06287 133.005 4.00346 132.545 2.99915C132.923 4.24034 130.711 2.85647 131.355 4.17247C130.891 3.01023 130.472 3.64745 129.838 2.64314C129.845 2.92434 130.054 3.19031 129.458 3.0227C129.428 3.10304 129.357 3.20278 129.313 3.26235C129.296 3.25265 129.289 3.24849 129.274 3.2388L129.305 3.27343C129.277 3.31499 129.275 3.3233 129.317 3.2859C129.456 3.41611 129.564 3.56988 129.604 3.72641C129.271 4.35393 128.313 4.28606 127.973 4.60328C127.621 4.45229 128.138 4.28883 127.958 3.9813L127.448 4.45506C127.432 3.83307 126.549 3.37594 127.412 3.05317L126.655 2.98806C126.224 2.61681 125.617 2.4492 125.225 2.69162C124.873 2.54063 124.287 3.33438 124.622 2.86478L123.413 3.1917L123.407 3.03378C122.236 2.89802 120.942 3.94528 119.653 2.75673C119.249 2.89387 118.833 3.06564 118.179 2.85785L118.076 2.31344C117.56 2.47552 116.577 1.69977 116.333 2.24972C115.851 0.775804 113.882 1.81336 113.003 1.51276L112.938 2.2137C112.325 2.14306 111.726 2.31483 110.953 2.55863L110.972 3.18062C110.293 3.65715 109.301 2.65699 108.258 2.66946C108.339 2.43535 108.6 2.51015 108.78 2.66253C107.597 1.19969 106.118 3.55325 105.033 2.4769C104.744 2.68885 104.543 2.60158 104.353 2.43673C104.38 2.43673 104.404 2.42565 104.424 2.40764C104.395 2.40072 104.353 2.39517 104.309 2.39517C104.19 2.28158 104.065 2.15137 103.932 2.0447C104.043 2.20124 104.151 2.33145 104.247 2.39379C104.029 2.39656 103.698 2.45751 103.37 2.59604L103.259 1.9228C103.233 1.93111 103.212 1.92834 103.184 1.93804C102.878 1.67622 102.918 2.24141 103.066 2.75119C102.899 2.85231 102.745 2.97698 102.624 3.13213C102.411 2.04332 101.766 3.45213 101.461 2.28851C101.222 2.83707 99.8261 2.63067 99.6087 3.79983C99.6045 3.64468 99.5117 3.56849 99.6862 3.56711C99.3344 3.41611 98.9798 3.26373 98.6459 3.57957L98.5268 2.72487L97.6984 3.82615C97.2426 3.2859 97.057 2.97698 97.5543 2.34807C96.3741 3.29559 96.6151 2.68054 95.6066 3.62667L95.6745 3.08088C95.3268 3.08503 94.745 3.7929 94.5525 3.32884C93.8155 2.22894 90.7194 3.01023 88.7579 2.01284C89.089 3.63637 87.8561 1.26619 87.7342 2.51569C87.6317 2.13197 87.3602 1.90895 87.694 1.58618C86.6648 1.93388 86.1855 0.940648 85.4471 1.97821C85.3432 1.59172 85.6826 1.42549 85.5884 1.19554C85.5039 1.27588 85.2546 1.51969 85.1548 1.28835C85.0593 1.0584 85.3142 0.971124 85.4804 0.809049C84.4387 0.847836 84.2946 2.02115 84.1838 3.12244C83.674 2.58772 83.408 2.65422 83.0063 3.36901C82.8331 3.0033 82.5395 2.6182 83.1892 2.50322C82.8276 2.44227 80.9866 1.91864 80.9215 2.80244C80.8148 2.57526 80.4159 2.72486 80.3175 2.8246C79.5044 2.75118 79.4351 2.66946 78.6317 2.73456L78.8491 2.88417C78.5014 3.9439 78.1773 3.10581 77.529 3.21802L77.5511 3.10997C76.0939 2.30236 76.9015 3.46182 75.4677 2.54617L75.5287 3.21109C75.3527 4.63653 74.2584 2.33699 73.3968 2.86201L73.6918 3.24849C73.2167 3.72502 72.452 1.27311 71.9921 1.08333C71.8937 0.955886 72.1569 0.888009 72.301 0.799352C71.1069 -0.0747481 72.1209 1.66514 71.208 1.84523C71.0543 1.37147 71.456 0.656671 70.8465 0.552776C70.5528 0.166288 69.0373 2.03223 68.227 1.11242C68.4015 1.47951 68.5733 1.84384 68.1466 2.10565C67.4983 2.21925 66.4344 0.695458 65.8235 1.82168C65.7432 1.71917 65.7155 1.62358 65.7141 1.53354C65.2126 1.81613 64.0975 1.98237 63.7872 2.59327C63.3827 0.28819 60.6953 3.63221 60.7535 1.51692L59.2324 1.59172L59.2768 1.37701C58.3099 1.21216 57.9552 1.71086 57.6048 2.21093C57.3831 2.06133 57.5507 1.86739 57.5715 1.75795C56.1627 1.29666 56.0186 1.38255 54.8107 2.40764L54.6999 1.71778C54.3702 2.10842 52.6705 0.590178 51.2658 1.35623C51.281 1.27865 51.3115 1.14705 51.4237 1.05147C49.8459 1.81891 47.7071 -0.944693 47.0948 1.54047L46.0531 2.13197C47.3843 2.35916 45.8384 3.21248 46.3814 3.64052C45.855 3.77351 45.0349 2.85231 45.6832 2.7401L45.7829 2.86755C46.0392 1.56956 44.1303 2.3647 44.1788 1.47813C41.5524 1.4712 38.9952 0.782729 36.5322 0.702384L36.8051 1.7164L35.9476 1.65406C35.7232 1.41856 35.6511 0.860304 36.2648 0.904632C35.9476 0.328363 35.2314 1.38255 35.2134 1.60142C34.0165 1.18723 35.6927 0.42256 35.3242 0.39624L34.8241 0.469661L34.9363 0.587407C34.5277 1.00021 34.4875 1.43934 33.7519 1.38532C33.2879 1.1803 33.5178 0.75918 33.335 0.721777C33.3364 0.648359 33.2754 0.613729 33.0538 0.689918L31.9719 0.599875L32.3999 1.40194C31.9165 1.79536 31.3818 1.35623 31.8749 2.26496C31.1518 0.86446 27.841 1.74549 27.3936 1.3119C26.719 1.89094 26.0568 1.87847 25.2354 1.80505C25.439 1.97267 25.5581 2.87309 24.8516 2.7595C25.1135 0.904633 23.5564 1.94773 22.9843 0.610957C23.4955 1.49891 20.9688 0.820132 21.7722 2.0821C21.1807 1.92973 21.7362 1.38809 21.2874 0.94896C19.8799 1.66237 18.1844 0.468276 16.4445 0.705156C16.4182 0.948962 16.7105 1.3216 16.3378 1.68315L15.4139 0.461349C15.0703 0.579096 15.1036 1.866 14.4719 1.01822C14.5619 1.22324 14.6949 1.53354 14.4649 1.60973C11.0489 0.38239 7.50955 2.62236 4.00623 0.429487C4.48553 0.894935 4.17246 0.946189 3.81367 0.968353C4.04917 1.07779 3.8206 1.57094 3.87186 1.89925L2.40209 1.00022C2.1569 1.92003 0.845058 1.08333 0.714844 1.9602L1.1706 1.79674C0.58463 2.83846 2.07656 4.08381 2.01422 5.41089C2.67222 4.22787 3.83999 7.12861 4.92604 5.43167C5.17677 5.69902 4.72241 5.86248 4.86093 6.16863C5.13383 5.59513 5.47322 5.47461 6.11044 5.7198L6.04117 5.8611C7.81708 5.70041 8.58728 6.25036 10.5834 6.59944L10.4311 5.94421C10.8605 6.02733 10.9519 6.23235 11.1528 6.39442C11.639 5.39288 9.949 6.35287 10.3881 5.2502C10.9658 6.56343 13.4205 5.27513 13.8139 6.78922C14.476 6.80031 13.6158 6.02733 14.2779 6.0398L14.4539 6.45122L14.6187 5.92344C15.0523 6.01209 15.2739 6.52741 15.2906 6.87511C15.1853 6.83355 14.9927 6.97069 14.8791 6.99978C15.4443 7.48601 16.4639 6.84186 16.6578 6.99978L16.022 6.74351C17.8256 6.36672 20.0295 6.91528 21.7722 6.0869L21.6406 5.7766C22.9718 5.21002 22.7073 6.12291 24.1701 5.86248L24.1161 5.9359C24.4084 5.62837 24.8004 5.47461 25.2007 5.51201C24.8295 5.87357 25.8934 6.21988 25.4071 6.61884C26.8533 6.01071 26.1233 6.13953 27.0805 4.99254L27.2994 5.50786C27.6249 5.04379 27.654 4.7986 28.3854 4.66977C27.7842 5.10752 28.8481 5.45383 28.1749 6.03426C29.7014 7.16463 30.4578 4.90942 31.1518 6.55511C31.8638 5.13661 29.8289 5.76136 30.2251 5.45799C29.8968 4.99254 30.8124 4.39688 31.2931 4.54094C31.7835 4.57557 32.1146 6.36533 33.3461 6.34178C33.2242 6.33486 33.2145 6.44291 33.0926 6.4346C33.5511 6.79892 33.9985 5.94698 34.5596 6.53988C34.8823 5.68101 35.2937 6.59113 35.3935 5.49539L34.2617 5.74473C34.9045 5.46076 35.5168 4.18077 36.5668 4.80691C36.4823 5.02717 36.1665 5.31669 35.949 5.47738C36.2537 5.80153 36.5446 5.26682 36.8619 5.59928C36.7607 6.69641 35.4863 5.83201 34.7937 6.66593C35.1192 7.13 36.0972 5.87772 35.7426 7.0635C36.2523 5.55495 36.9547 7.2616 37.7983 6.10906L37.736 6.76567C37.8689 6.66317 38.146 6.35425 38.3884 6.37087L37.9396 7.22143C38.6225 6.49693 39.2348 7.8628 39.8845 7.46938C38.5297 7.48462 39.5894 6.67702 39.0215 6.19495C40.7046 5.32223 39.9635 7.91821 41.8377 7.61068C41.5828 7.70211 40.8916 7.21173 41.2919 6.90974C41.6466 7.04688 42.1134 7.30038 42.3281 7.6467C43.5693 7.52618 42.1466 6.96515 42.68 6.56758C43.0914 7.37934 43.2936 6.25728 43.8408 6.01486L43.8366 6.68256C45.2441 7.14662 44.2301 5.29868 45.4962 5.84863L44.9449 6.76152L45.6112 6.53849L45.4629 7.29484C46.193 6.74905 46.416 6.90004 47.1197 7.13138C46.9618 6.65762 47.2305 5.92066 47.8581 5.91651C48.2792 6.32377 47.6087 6.54542 48.4981 6.472C48.2916 6.88481 48.0631 7.40289 47.6863 6.77953C47.6433 6.99701 47.4827 7.19372 47.4383 7.40843C47.8913 7.87527 48.5923 7.54142 48.9122 7.5428C48.789 7.51371 48.6421 7.47493 48.5673 7.37796L49.8695 6.48308C50.0676 6.73935 49.9027 6.93606 49.7406 7.13C50.0024 7.0635 50.1881 6.76152 50.5718 6.71303C50.4637 7.25329 50.4776 7.81432 49.9318 8.05812L51.1661 7.48462C51.245 7.72289 51.7839 8.14955 51.6218 8.34487C52.2951 8.68149 53.3063 7.33224 54.1998 7.77691C54.2483 7.67302 54.3439 7.57467 54.5378 7.50125C55.3828 7.64532 56.1198 8.32963 57.1365 7.61068L57.6865 8.59699C58.4761 8.39613 56.9398 7.35164 58.2558 7.01779C59.1881 6.72966 58.5841 7.85588 58.9041 8.1357C59.3737 7.6564 60.1966 6.6784 61.0319 7.49155C60.7521 7.67302 60.5332 7.5248 60.27 7.5899ZM69.9724 7.40012C69.7812 7.53588 69.3961 7.95977 69.2687 7.56081C69.5014 6.80169 69.6579 7.17155 69.9724 7.40012ZM84.7614 6.16031C84.6146 6.3778 84.4026 6.26282 84.1658 6.00378C84.3445 5.95391 84.5439 5.983 84.7614 6.16031ZM126.045 3.351L126.023 3.38148C125.616 3.10027 125.761 3.21248 126.045 3.351ZM126.902 3.68208C126.994 3.59481 126.993 3.50061 126.961 3.40503C126.891 3.57126 126.696 3.57403 126.474 3.51447C126.528 3.69316 126.635 3.81922 126.902 3.68208ZM33.2366 0.969741L33.4056 1.14428C33.0205 1.33683 33.1286 1.16368 33.2366 0.969741Z" fill="#00AE44"/>
<path d="M83.0612 7.03172C83.0127 6.91675 83.0016 6.79346 82.9933 6.66602C82.9157 6.77822 82.9088 6.90705 83.0612 7.03172Z" fill="#00AE44"/>
<path d="M54.2363 7.78927C54.2267 7.78376 54.2171 7.78651 54.2074 7.78101C54.1909 7.81955 54.1813 7.86084 54.1758 7.89938L54.2363 7.78927Z" fill="#00AE44"/>
<path d="M113.152 8.68137C112.979 8.57609 112.883 8.45004 112.822 8.31982C112.806 8.48329 112.882 8.62458 113.152 8.68137Z" fill="#00AE44"/>
<path d="M131.58 2.77466L131.014 2.92149C131.285 2.90072 131.374 3.05171 131.504 3.1653C131.5 3.00877 131.406 2.77743 131.58 2.77466Z" fill="#00AE44"/>
<path d="M136.207 7.14244C136.294 7.06486 136.38 7.14243 136.466 7.06347L136.461 6.75317C136.113 6.75456 135.855 6.99283 136.207 7.14244Z" fill="#00AE44"/>
<path d="M131.982 5.01739C131.998 5.58119 132.358 5.40803 132.754 5.32353C132.73 5.32353 132.71 5.32768 132.685 5.32076C132.841 4.54086 132.412 4.77912 131.982 5.01739Z" fill="#00AE44"/>
<path d="M132.844 5.3084C132.966 5.28762 133.089 5.27931 133.205 5.31255C133.269 5.00087 133.063 5.23914 132.844 5.3084Z" fill="#00AE44"/>
<path d="M128.029 3.36492C128.206 3.51869 128.18 2.6529 128.275 2.88701C128.516 2.18191 126.994 3.69046 128.029 3.36492Z" fill="#00AE44"/>
<path d="M132.201 6.88339L132.098 6.18384L131.85 6.73101L132.201 6.88339Z" fill="#00AE44"/>
<path d="M129.145 6.22261L129.758 6.44563C129.754 6.32927 129.837 6.26555 129.937 6.21845C129.555 6.17551 129.14 6.01759 129.145 6.22261Z" fill="#00AE44"/>
<path d="M129.938 6.21838C130.138 6.24054 130.33 6.235 130.446 6.12695C130.338 6.12834 130.102 6.14081 129.938 6.21838Z" fill="#00AE44"/>
<path d="M131.34 7.04953L131.161 6.89576L130.725 6.82373L131.34 7.04953Z" fill="#00AE44"/>
<path d="M122.442 5.76001L121.75 5.92486C121.669 6.15896 121.847 6.31411 122.106 6.23238C122.278 6.07446 122.536 5.9955 122.442 5.76001Z" fill="#00AE44"/>
<path d="M124.407 7.76039C124.23 7.60801 124.225 7.45147 124.133 7.21875L124.07 8.07762L124.407 7.76039Z" fill="#00AE44"/>
<path d="M122.413 7.86279C122.334 8.0969 121.392 8.49863 122.258 8.48755C122.338 8.25482 123.03 8.08998 122.413 7.86279Z" fill="#00AE44"/>
<path d="M112.203 6.27234L112.376 6.27096L112.415 4.85938L112.203 6.27234Z" fill="#00AE44"/>
<path d="M103.022 9.20238C103.815 9.57917 103.25 8.34213 103.96 8.79927C104.163 8.4765 103.38 8.42663 103.585 8.14819C103.085 8.47512 102.837 8.26456 103.022 9.20238Z" fill="#00AE44"/>
<path d="M103.584 8.14805C103.666 8.09679 103.75 8.03307 103.842 7.9458C103.698 8.02615 103.628 8.08987 103.584 8.14805Z" fill="#00AE44"/>
<path d="M1.41589 0.288135L0.886719 0L1.23442 0.470989L1.41589 0.288135Z" fill="#00AE44"/>
<path d="M0.437743 1.34784L0.293675 0.450195L0 1.2675C0.117747 1.22594 0.343545 1.14559 0.437743 1.34784Z" fill="#00AE44"/>
<path d="M71.3666 9.24652L71.411 9.03042C71.3376 8.79492 71.2156 8.77414 70.9746 8.7312L71.3666 9.24652Z" fill="#00AE44"/>
<path d="M64.3529 8.39899L64.4734 8.41976L64.2656 7.60107L64.3529 8.39899Z" fill="#00AE44"/>
<path d="M58.4303 9.28809C58.6699 9.32826 58.9567 9.15372 59.1991 9.19528C58.6713 9.32826 58.3859 8.27269 58.4303 9.28809Z" fill="#00AE44"/>
</svg>
